<svg width="327" height="157" viewBox="0 0 327 157" fill="none" xmlns="http://www.w3.org/2000/svg">
<path d="M110.765 67.3084H47.1832V82.5261H85.0294L49.7451 155.103H68.0277L110.765 67.3084Z" fill="black"/>
<path d="M122.227 156.273C128.282 156.273 132.474 152.293 132.474 146.323C132.474 140.353 128.282 136.256 122.227 136.256C116.055 136.256 111.863 140.353 111.863 146.323C111.863 152.293 116.055 156.273 122.227 156.273Z" fill="black"/>
<path d="M168.76 156.273C185.762 156.273 200.435 146.791 200.435 129.584C200.435 119.751 194.729 111.674 185.878 107.694C192.283 103.597 196.359 97.1584 196.359 89.4325C196.359 74.449 183.782 66.1378 168.76 66.1378C153.738 66.1378 141.162 74.449 141.162 89.4325C141.162 97.2755 145.354 103.714 151.759 107.694C142.909 111.674 137.086 119.751 137.086 129.584C137.086 146.791 151.759 156.273 168.76 156.273ZM180.172 90.7202C180.172 97.2755 175.165 101.49 168.76 101.49C162.356 101.49 157.348 97.2755 157.348 90.7202C157.348 84.2819 162.356 80.3019 168.76 80.3019C175.165 80.3019 180.172 84.2819 180.172 90.7202ZM183.084 128.53C183.084 136.49 176.563 140.938 168.76 140.938C160.958 140.938 154.554 136.49 154.554 128.53C154.554 120.687 160.958 116.239 168.76 116.239C176.563 116.239 183.084 120.687 183.084 128.53Z" fill="black"/>
<path d="M235.191 156.273C252.193 156.273 266.866 146.791 266.866 129.584C266.866 119.751 261.16 111.674 252.309 107.694C258.714 103.597 262.79 97.1584 262.79 89.4325C262.79 74.449 250.213 66.1378 235.191 66.1378C220.169 66.1378 207.593 74.449 207.593 89.4325C207.593 97.2755 211.785 103.714 218.19 107.694C209.339 111.674 203.517 119.751 203.517 129.584C203.517 146.791 218.19 156.273 235.191 156.273ZM246.603 90.7202C246.603 97.2755 241.596 101.49 235.191 101.49C228.787 101.49 223.779 97.2755 223.779 90.7202C223.779 84.2819 228.787 80.3019 235.191 80.3019C241.596 80.3019 246.603 84.2819 246.603 90.7202ZM249.515 128.53C249.515 136.49 242.993 140.938 235.191 140.938C227.389 140.938 220.984 136.49 220.984 128.53C220.984 120.687 227.389 116.239 235.191 116.239C242.993 116.239 249.515 120.687 249.515 128.53Z" fill="black"/>
<path d="M281.924 97.4133C288.969 97.4133 294.093 92.5554 294.093 85.883C294.093 79.3863 288.969 74.5283 281.924 74.5283C274.937 74.5283 269.755 79.3863 269.755 85.883C269.755 92.5554 274.937 97.4133 281.924 97.4133ZM284.37 119.011L318.664 75.1136H311.503L277.208 119.011H284.37ZM281.924 80.2057C285.301 80.2057 287.805 82.6054 287.805 85.883C287.805 89.2777 285.301 91.7945 281.924 91.7945C278.547 91.7945 276.044 89.2777 276.044 85.883C276.044 82.6054 278.547 80.2057 281.924 80.2057ZM313.89 119.596C320.877 119.596 326.059 114.738 326.059 108.183C326.059 101.569 320.877 96.7695 313.89 96.7695C306.845 96.7695 301.663 101.569 301.663 108.183C301.663 114.738 306.845 119.596 313.89 119.596ZM319.712 108.183C319.712 111.519 317.267 113.977 313.89 113.977C310.454 113.977 308.009 111.519 308.009 108.183C308.009 104.847 310.454 102.388 313.89 102.388C317.267 102.388 319.712 104.847 319.712 108.183Z" fill="black"/>
<path d="M283.058 149.543C287.338 149.543 290.365 146.265 290.365 141.817C290.365 137.427 287.309 134.208 283.058 134.208C281.282 134.208 279.798 134.94 278.691 136.169V134.501H274.674V156.566H278.691V147.582C279.798 148.811 281.282 149.543 283.058 149.543ZM286.231 141.817C286.231 144.129 284.659 145.768 282.505 145.768C280.322 145.768 278.691 144.129 278.691 141.817C278.691 139.593 280.322 137.983 282.505 137.983C284.63 137.983 286.231 139.593 286.231 141.817Z" fill="black"/>
<path d="M294.056 149.543C295.57 149.543 296.618 148.548 296.618 147.055C296.618 145.563 295.57 144.538 294.056 144.538C292.513 144.538 291.465 145.563 291.465 147.055C291.465 148.548 292.513 149.543 294.056 149.543Z" fill="black"/>
<path d="M309.36 149.25H313.436V134.501H309.36V136.198C308.312 134.94 306.798 134.208 305.022 134.208C300.714 134.208 297.715 137.486 297.715 141.934C297.715 146.324 300.743 149.543 305.022 149.543C306.798 149.543 308.312 148.811 309.36 147.582V149.25ZM305.575 137.983C307.759 137.983 309.36 139.651 309.36 141.934C309.36 144.187 307.759 145.768 305.575 145.768C303.45 145.768 301.878 144.158 301.878 141.934C301.878 139.651 303.45 137.983 305.575 137.983Z" fill="black"/>
<path fill-rule="evenodd" clip-rule="evenodd" d="M268.712 50.1992C268.711 50.1987 268.711 50.1981 268.71 50.1976C268.708 50.1957 268.706 50.1938 268.704 50.1919C268.698 50.1862 268.692 50.1808 268.686 50.1757C268.574 50.0823 268.416 50.0835 268.305 50.1786C262.425 54.3805 256.583 54.7763 250.532 50.1824C250.43 50.0916 250.284 50.0813 250.172 50.1567C250.171 50.1574 250.17 50.158 250.169 50.1587C250.162 50.1638 250.155 50.1692 250.148 50.175C250.146 50.1766 250.144 50.1782 250.142 50.1798C250.137 50.1845 250.131 50.1894 250.126 50.1945C250.123 50.1979 250.119 50.2014 250.116 50.205C250.113 50.2088 250.109 50.2126 250.106 50.2165C250.101 50.2222 250.097 50.228 250.093 50.234C250.091 50.236 250.09 50.238 250.088 50.24C250.083 50.2482 250.077 50.2567 250.072 50.2654C250.005 50.3847 250.017 50.5361 250.102 50.6418C254.433 57.056 254.06 63.2478 250.099 69.4806C250.006 69.6003 250.006 69.7736 250.099 69.8936C250.099 69.8947 250.1 69.8957 250.101 69.8968C250.101 69.8968 250.101 69.8968 250.101 69.8968C250.105 69.9014 250.109 69.9058 250.113 69.9101C250.117 69.9139 250.12 69.9175 250.124 69.9211C250.125 69.9228 250.127 69.9244 250.128 69.926C250.24 70.0358 250.41 70.042 250.529 69.9406C256.411 65.7409 262.25 65.3428 268.301 69.936C268.403 70.0273 268.549 70.0379 268.662 69.9623C268.663 69.9612 268.664 69.9601 268.664 69.9591C268.672 69.954 268.679 69.9486 268.686 69.9428C268.688 69.9412 268.69 69.9396 268.692 69.938C268.697 69.9333 268.702 69.9285 268.708 69.9234C268.711 69.9199 268.714 69.9163 268.718 69.9127C268.721 69.909 268.725 69.9052 268.728 69.9014C268.733 69.8957 268.737 69.8899 268.741 69.8839C268.743 69.8818 268.744 69.8798 268.746 69.8777C268.751 69.8695 268.757 69.8611 268.761 69.8524C268.828 69.7333 268.817 69.5822 268.732 69.4765C264.401 63.0621 264.776 56.8725 268.734 50.6371C268.828 50.5174 268.828 50.3442 268.735 50.2242C268.735 50.2234 268.734 50.2227 268.733 50.2219C268.733 50.2217 268.733 50.2215 268.733 50.2213C268.729 50.2166 268.725 50.2121 268.721 50.2076C268.718 50.2043 268.715 50.2011 268.713 50.1979L268.712 50.1992Z" fill="#38D200"/>
<path d="M125.997 17.3476C125.997 20.5978 123.392 23.204 120.213 23.204C117.035 23.204 114.43 20.5978 114.43 17.3476C114.43 14.0974 117.035 11.4912 120.213 11.4912C123.392 11.4912 125.997 14.0974 125.997 17.3476Z" stroke="#38D200" stroke-width="3.45389"/>
<path fill-rule="evenodd" clip-rule="evenodd" d="M77.2148 136.262L76.496 139.995L80.1944 140.722L79.8349 142.589L76.1366 141.863L75.4176 145.598L73.5683 145.235L74.2874 141.5L70.5888 140.774L70.9482 138.907L74.6468 139.633L75.3656 135.899L77.2148 136.262Z" fill="#38D200"/>
<path fill-rule="evenodd" clip-rule="evenodd" d="M257.246 132.697L256.527 136.431L260.225 137.157L259.866 139.024L256.168 138.298L255.449 142.033L253.599 141.67L254.318 137.935L250.62 137.21L250.979 135.343L254.678 136.068L255.397 132.334L257.246 132.697Z" fill="#38D200"/>
<path d="M0.441181 75.5647C0.528547 75.3453 0.632301 75.0162 0.752432 74.6981C1.62611 72.1641 3.4226 66.9918 7.59986 65.7412C8.05544 65.5513 8.53852 65.4365 9.0305 65.4011L19.8968 64.4138C21.9718 64.1981 23.1986 65.1031 23.5772 67.1289L27.2957 87.5712C27.5032 90.4965 26.3183 91.9592 23.741 91.9592L10.1772 91.8879C7.56346 91.8477 6.3749 90.3686 6.61152 87.4506L6.44223 82.6238C4.9768 82.4388 3.57356 81.9171 2.34143 81.099C1.65602 80.739 1.06912 80.2154 0.632299 79.5742C0.254564 78.9809 0.0381489 78.2985 0.00461578 77.5951C-0.0289154 76.8916 0.121605 76.1916 0.441181 75.5647ZM6.28934 78.2469L6.18014 75.093C5.65777 75.8563 5.19585 76.6595 4.79864 77.4954L4.75495 77.5777C4.72052 77.6593 4.69312 77.7437 4.67304 77.83C5.19518 78.0274 5.73713 78.1671 6.28934 78.2469Z" fill="#89CE57"/>
<path d="M24.7652 91.6425L16.8694 91.7522L19.8836 149.415L25.3877 149.328C26.9224 130.12 26.714 110.812 24.7652 91.6425Z" fill="#3771B7"/>
<path d="M28.015 152.422C27.342 152.184 26.7438 151.772 26.2814 151.227C25.819 150.681 25.509 150.022 25.383 149.317L19.8789 149.41L20.0263 155.104H30.2811C30.3393 153.553 29.5839 152.659 28.015 152.422Z" fill="#E5E5E4"/>
<path d="M18.6881 91.7522L9.15415 91.6425C8.18718 110.902 8.96393 130.209 11.4748 149.328L16.979 149.415L18.6881 91.7522Z" fill="#3771B7"/>
<path d="M11.4691 149.317C11.382 150.015 11.1036 150.675 10.6649 151.223C10.2262 151.771 9.64446 152.186 8.98464 152.422C7.42841 152.658 6.71855 153.552 6.86598 155.104H17.1207L16.9733 149.41L11.4691 149.317Z" fill="#E5E5E4"/>
<path d="M10.9782 59.2764C11.0529 59.7201 11.2174 60.1438 11.4616 60.5212C11.7058 60.8986 12.0245 61.2216 12.3979 61.4703C12.7647 61.7229 13.1774 61.9003 13.6124 61.9926C14.0475 62.0849 14.4964 62.0902 14.9335 62.0082C15.3706 61.9262 15.7873 61.7585 16.1598 61.5147C16.5324 61.2709 16.8535 60.9557 17.1048 60.5873C17.3641 60.222 17.5463 59.8073 17.6402 59.3687C17.7341 58.9301 17.7377 58.4768 17.6509 58.0368C17.5252 57.2823 17.1385 56.5966 16.5588 56.1006L10.9399 58.9473C10.9454 59.0625 10.9618 59.1667 10.9782 59.2764Z" fill="#AB8C6C"/>
<path d="M16.2365 55.8416C15.87 55.5888 15.4575 55.4112 15.0226 55.319C14.5876 55.2268 14.1388 55.2219 13.7019 55.3044C13.265 55.387 12.8487 55.5554 12.4769 55.8001C12.105 56.0448 11.7849 56.3608 11.535 56.7301C11.071 57.3696 10.8589 58.1589 10.9398 58.9461L16.5259 56.0719C16.4354 55.9878 16.3387 55.9108 16.2365 55.8416Z" fill="#010101"/>
<path d="M29.8873 80.6725C30.0914 80.6719 30.2947 80.648 30.4934 80.6012C34.0263 79.8881 35.7355 78.3249 37.5429 76.663L38.1162 76.1145L35.4406 73.1197L34.8454 73.6682C33.382 75.012 32.3664 75.9445 30.3678 76.482C29.6024 75.1814 28.9168 73.8351 28.3147 72.4505C26.2998 68.0955 24.3832 63.9818 21.2161 64.2231L21.5492 68.2326C21.4457 68.2463 21.3404 68.233 21.2434 68.1942C22.1335 68.655 23.7825 72.2147 24.6671 74.1289C26.409 77.8971 27.7031 80.6725 29.8873 80.6725Z" fill="#89CE57"/>
<path d="M24.247 71.1495H24.2743C24.3676 71.1412 24.4538 71.0961 24.5141 71.0242C24.5745 70.9523 24.6041 70.8593 24.5965 70.7656C24.5965 70.5462 24.1269 65.2807 21.7461 64.0795C21.6629 64.038 21.5666 64.0315 21.4785 64.0613C21.3905 64.0911 21.3178 64.1549 21.2765 64.2385C21.2353 64.3222 21.2288 64.4189 21.2585 64.5073C21.2882 64.5958 21.3516 64.6688 21.4349 64.7102C23.1167 65.5494 23.7829 69.4108 23.8976 70.8259C23.9057 70.9137 23.9459 70.9954 24.0104 71.0552C24.0749 71.1149 24.1593 71.1486 24.247 71.1495Z" fill="#55803C"/>
<path d="M25.4917 78.4298L20.9759 80.3385C20.6902 80.463 20.3713 80.4877 20.07 80.4088C19.7687 80.3298 19.5025 80.1516 19.3138 79.9027C19.1252 79.6539 19.025 79.3487 19.0294 79.0359C19.0337 78.7232 19.1423 78.4209 19.3378 78.1774L22.3629 74.3983C22.7505 75.0291 23.1601 75.6269 23.5805 76.1809C24.1729 76.9678 24.811 77.7187 25.4917 78.4298Z" fill="#E1BF61"/>
<path d="M35.2118 74.3045L32.3341 75.5222C30.1339 73.5765 28.3232 71.2272 26.9992 68.6002L28.9595 66.1484C29.6277 67.5971 30.4497 68.969 31.4113 70.2402C32.5299 71.7275 33.804 73.09 35.2118 74.3045Z" fill="#E1BF61"/>
<path d="M40.0114 72.3025L37.2812 73.4599C35.714 72.2093 32.1975 69.0335 30.3682 64.4207L32.2466 62.0731C33.0761 64.0356 34.1593 65.8797 35.4683 67.5581C36.7493 69.3494 38.2792 70.9472 40.0114 72.3025Z" fill="#E1BF61"/>
<path d="M30.3192 76.3946L27.4634 77.5958C26.0008 76.1522 24.7357 74.5199 23.7011 72.7416L25.6396 70.3173C26.1889 71.3306 26.8112 72.3022 27.5016 73.2243C28.356 74.3541 29.2982 75.4142 30.3192 76.3946Z" fill="#E1BF61"/>
<path d="M37.2705 73.4607L35.2119 74.3328C33.798 73.116 32.5167 71.7517 31.3896 70.263C30.428 68.9917 29.606 67.6199 28.9379 66.1712L30.3576 64.4325C32.1868 69.0344 35.7034 72.2101 37.2705 73.4607Z" fill="#336CB3"/>
<path d="M32.3337 75.5441L30.3188 76.3942C29.2977 75.4138 28.3556 74.3537 27.5012 73.2239C26.8108 72.3018 26.1884 71.3302 25.6392 70.3169L26.9988 68.6221C28.3228 71.2491 30.1335 73.5984 32.3337 75.5441Z" fill="#5CB130"/>
<path d="M27.463 77.596L25.4918 78.4297C24.8165 77.7169 24.182 76.9661 23.5916 76.1809C23.1766 75.6324 22.767 75.0291 22.3794 74.3983L23.7008 72.7528C24.7361 74.5273 26.0012 76.1559 27.463 77.596Z" fill="#336CB3"/>
<path d="M34.6056 61.7328C37.1138 64.2059 39.2396 67.0419 40.9125 70.1467C41.0065 70.3345 41.0611 70.5397 41.0727 70.7496C41.0843 70.9595 41.0528 71.1695 40.9801 71.3666C40.9073 71.5637 40.7949 71.7437 40.6499 71.8952C40.5048 72.0468 40.3303 72.1667 40.1371 72.2474L40.0115 72.3023C38.2735 70.9393 36.7397 69.3322 35.4575 67.5304C34.1485 65.8521 33.0653 64.0079 32.2358 62.0455L32.3778 61.8699C32.5112 61.708 32.6762 61.5753 32.8627 61.4801C33.0493 61.3849 33.2533 61.3291 33.4621 61.3162C33.6709 61.3034 33.8802 61.3337 34.0769 61.4054C34.2736 61.477 34.4535 61.5885 34.6056 61.7328Z" fill="#C0A24E"/>
<path d="M37.827 76.279L37.6905 76.3668L35.5773 74.5952C38.5697 67.9419 41.6221 70.7557 41.7258 72.5054C41.8295 74.2551 37.827 76.279 37.827 76.279Z" fill="#AB8C6C"/>
<path d="M17.5143 81.8628C18.0024 82.2705 18.6312 82.4677 19.2635 82.4111C19.8958 82.3546 20.4801 82.049 20.8889 81.5612C21.0954 81.3211 21.2505 81.0409 21.3445 80.738C21.4384 80.435 21.4692 80.1159 21.4349 79.8005C21.4123 79.4829 21.3256 79.1732 21.1801 78.8904C21.0346 78.6075 20.8333 78.3573 20.5885 78.155C20.35 77.9485 20.072 77.7933 19.7714 77.699C19.4709 77.6047 19.1543 77.5732 18.8412 77.6065C18.5264 77.632 18.2198 77.72 17.9391 77.8654C17.6585 78.0109 17.4093 78.2108 17.2062 78.4536C17.003 78.6965 16.8499 78.9774 16.7556 79.2802C16.6613 79.583 16.6278 79.9015 16.657 80.2174C16.68 80.536 16.768 80.8465 16.9155 81.1296C17.063 81.4126 17.2668 81.6622 17.5143 81.8628Z" fill="#AB8C6C"/>
<path d="M16.7279 78.5878C16.8138 78.577 16.8928 78.5351 16.95 78.47C17.0073 78.4048 17.0389 78.3209 17.0389 78.234C17.0389 78.1471 17.0073 78.0632 16.95 77.998C16.8928 77.9329 16.8138 77.891 16.7279 77.8802C16.6624 77.8802 9.98972 77.7102 6.66976 77.4688C6.57825 77.4642 6.4885 77.4953 6.4193 77.5556C6.35009 77.6159 6.30678 77.7008 6.29843 77.7924C6.29471 77.8386 6.3001 77.885 6.3143 77.929C6.32849 77.973 6.35121 78.0138 6.38115 78.049C6.4111 78.0842 6.44768 78.113 6.48877 78.134C6.52987 78.1549 6.57467 78.1674 6.62062 78.1709C9.95695 78.4122 16.646 78.5823 16.7115 78.5878H16.7279Z" fill="#55803C"/>
<path d="M11.1364 49.4852L15.6085 55.5187L11.1637 57.0106L11.1364 49.4852Z" fill="#5CB130"/>
<path d="M286.784 53.5067C281.905 50.1585 285.938 45.767 286.494 40.7241C287.292 36.6007 292.135 36.9512 293.603 37.9449C295.072 38.9386 295.98 39.9283 296.319 41.656L302.181 67.2542C302.181 67.2542 290.081 67.0109 289.91 66.9408L286.784 53.5067Z" fill="#3771B7"/>
<path d="M268.872 64.9528C268.148 65.2868 266.827 65.46 265.927 66.1074C264.995 66.8908 263.367 67.6619 262.704 65.8517C262.393 64.7137 263.207 63.9137 264.217 63.5756C265.442 63.2604 266.682 63.0072 267.932 62.8169L268.872 64.9528Z" fill="#F2CBAF"/>
<path d="M268.554 65.0802L291.268 59.9466C293.559 59.4559 294.724 57.6911 294.949 54.9737L294.246 48.3515L288.642 48.1577L289.227 54.5408L267.719 62.9154L268.554 65.0802Z" fill="#F2CBAF"/>
<path d="M265.052 72.0696C265.052 72.0696 275.462 68.5688 283.962 67.6699C284.891 70.0409 286.764 73.5499 287.689 77.496C285.643 77.5167 284.343 77.496 283.267 77.4094C279.524 77.0754 268.791 77.496 268.791 77.496L273.368 93.0372L268.566 93.0166L262.197 76.7538C261.481 74.6385 262.925 72.7871 265.052 72.0696Z" fill="#89CE57"/>
<path d="M290.045 66.8204C295.452 66.8204 302.009 66.6595 302.009 66.6595L302.386 68.012C303.711 73.5003 300.402 77.3846 294.798 77.4093C290.65 77.4299 287.811 77.4794 285.742 77.4959C284.817 73.5498 283.03 70.2634 282.105 67.8924C285.807 67.142 288.552 66.8204 290.045 66.8204Z" fill="#89CE57"/>
<path d="M276.645 100.972L264.692 101.001C264.586 99.7636 265.163 99.0874 266.414 98.9596C270.055 98.3947 268.333 96.3742 268.051 92.8899L273.72 92.9188L276.645 100.972Z" fill="#B18B67"/>
<path d="M292.213 33.561C291.479 34.2996 290.5 34.7375 289.465 34.79C288.43 34.8425 287.412 34.5058 286.609 33.8452C285.806 33.1845 285.275 32.2469 285.118 31.214C284.962 30.1811 285.191 29.1264 285.762 28.2542C285.875 28.0767 286.004 27.9098 286.147 27.7552L292.213 33.561Z" fill="#F2CBAF"/>
<path d="M286.138 27.7512C286.138 27.7512 285.807 26.6997 286.568 25.2771C287.775 23.0051 293.145 17.9952 302.181 25.2194C309.81 31.3179 309.675 32.7281 319.234 32.9797C327.563 33.2023 330.34 48.7229 319.48 51.3124C299.596 56.0543 303.527 31.3715 292.213 33.5817L286.138 27.7512Z" fill="#6E6F72"/>
<path d="M53.8998 55.4272C53.8998 57.2611 52.8323 58.1781 51.2602 58.1781C49.6882 58.1781 48.6013 57.2611 48.6013 55.4272V49.8864H47.0292V55.2711C47.0292 58.0025 48.6595 59.6608 51.2602 59.6608C53.8221 59.6608 55.4718 58.0025 55.4718 55.2711V49.8864H53.8998V55.4272Z" fill="black"/>
<path d="M62.8327 59.6608C65.6081 59.6608 67.646 57.5733 67.646 54.6663C67.646 51.7984 65.6081 49.7108 62.8327 49.7108C61.2995 49.7108 60.0379 50.4912 59.3198 51.7203V49.8864H57.7478V64.3822H59.3198V57.6708C60.0379 58.8999 61.2995 59.6608 62.8327 59.6608ZM66.0157 54.6858C66.0157 56.7148 64.6183 58.1781 62.6969 58.1781C60.7366 58.1781 59.3198 56.7148 59.3198 54.6858C59.3198 52.6763 60.7366 51.2131 62.6969 51.2131C64.6183 51.2131 66.0157 52.6763 66.0157 54.6858Z" fill="black"/>
<path d="M78.7507 58.9975V57.4562C78.052 57.944 77.2757 58.1586 76.5188 58.1586C75.4513 58.1586 74.6556 57.6318 74.6556 56.2856V51.3496H78.6149V49.8864H74.6556V46.8234H73.0835V56.1686C73.0835 58.7634 74.345 59.6608 76.3635 59.6608C77.1592 59.6608 78.0714 59.4657 78.7507 58.9975Z" fill="black"/>
<path d="M84.3353 59.6608C87.2077 59.6608 89.265 57.5733 89.265 54.6663C89.265 51.7984 87.2077 49.7108 84.3353 49.7108C81.4241 49.7108 79.3086 51.7984 79.3086 54.6663C79.3086 57.5733 81.4241 59.6608 84.3353 59.6608ZM87.6347 54.6858C87.6347 56.7148 86.2567 58.1781 84.3159 58.1781C82.3363 58.1781 80.9389 56.7148 80.9389 54.6858C80.9389 52.6763 82.3363 51.2131 84.3159 51.2131C86.2567 51.2131 87.6347 52.6763 87.6347 54.6858Z" fill="black"/>
</svg>
