<svg width="32" height="32" viewBox="0 0 32 32" fill="none" xmlns="http://www.w3.org/2000/svg">
<path d="M27 16C27 13.0826 25.8411 10.2847 23.7782 8.22183C21.7153 6.15893 18.9174 5 16 5C13.0826 5 10.2847 6.15892 8.22183 8.22182C6.15893 10.2847 5 13.0826 5 16C5 16 9.25 14.75 16 14.75C22.75 14.75 27 16 27 16Z" fill="#38D200"/>
<path d="M14 27C14.5253 27 15.0454 26.8965 15.5307 26.6955C16.016 26.4945 16.457 26.1999 16.8284 25.8284C17.1999 25.457 17.4945 25.016 17.6955 24.5307C17.8965 24.0454 18 23.5253 18 23H14V27Z" fill="#0F7AED"/>
<path d="M18 18.5C18 19.6046 17.1046 20.5 16 20.5C14.8954 20.5 14 19.6046 14 18.5C14 17.3954 14.8954 16.5 16 16.5C17.1046 16.5 18 17.3954 18 18.5Z" fill="#0F7AED"/>
<path d="M14 18.5H18V23H14V18.5Z" fill="#0F7AED"/>
</svg>
