<svg width="50" height="50" viewBox="0 0 50 50" fill="none" xmlns="http://www.w3.org/2000/svg">
<path fill-rule="evenodd" clip-rule="evenodd" d="M28.7562 6.88439C28.7562 4.92284 27.166 3.33268 25.2045 3.33268C23.2429 3.33268 21.6528 4.92284 21.6528 6.88439C21.6528 8.84595 23.2429 10.4361 25.2045 10.4361C27.166 10.4361 28.7562 8.84595 28.7562 6.88439ZM25.2045 1.66602C28.0865 1.66602 30.4229 4.00236 30.4229 6.88439C30.4229 8.57673 29.6173 10.0809 28.3686 11.0344C31.6805 12.3198 34.0283 15.5375 34.0283 19.3036V30.7589C34.0283 31.2192 33.6552 31.5923 33.195 31.5923C32.7347 31.5923 32.3617 31.2192 32.3617 30.7589V19.3036C32.3617 15.3269 29.1379 12.1032 25.1613 12.1032C21.162 12.1032 17.929 15.3623 17.9611 19.3614L18.0573 31.3369C18.061 31.7971 17.691 32.1732 17.2307 32.1769C16.7705 32.1806 16.3944 31.8105 16.3907 31.3503L16.2945 19.3748C16.2638 15.5595 18.6464 12.2912 22.0115 11.0122C20.7793 10.0577 19.9861 8.56366 19.9861 6.88439C19.9861 4.00236 22.3224 1.66602 25.2045 1.66602ZM28.7562 17.848C28.7562 17.3877 29.1293 17.0146 29.5895 17.0146C30.0498 17.0146 30.4229 17.3877 30.4229 17.848V45.425C30.4229 47.0962 29.0681 48.4509 27.397 48.4509C26.5084 48.4509 25.7092 48.0678 25.1557 47.4579C24.6021 48.0678 23.803 48.4509 22.9144 48.4509C21.2432 48.4509 19.8885 47.0962 19.8885 45.425V17.848C19.8885 17.3877 20.2616 17.0146 20.7218 17.0146C21.1821 17.0146 21.5552 17.3877 21.5552 17.848V45.425C21.5552 46.1757 22.1637 46.7842 22.9144 46.7842C23.665 46.7842 24.2736 46.1757 24.2736 45.425V31.4416C24.2736 30.9814 24.6466 30.6083 25.1069 30.6083C25.1233 30.6083 25.1395 30.6088 25.1557 30.6097C25.1718 30.6088 25.1881 30.6083 25.2045 30.6083C25.6647 30.6083 26.0378 30.9814 26.0378 31.4416V45.425C26.0378 46.1757 26.6463 46.7842 27.397 46.7842C28.1477 46.7842 28.7562 46.1757 28.7562 45.425V17.848Z" fill="#6B6E73"/>
</svg>
