<svg width="64" height="64" viewBox="0 0 64 64" fill="none" xmlns="http://www.w3.org/2000/svg">
<path fill-rule="evenodd" clip-rule="evenodd" d="M39.6094 3.40625C41.551 3.40625 43.125 4.98024 43.125 6.92186C43.125 8.86348 41.551 10.4375 39.6094 10.4375C37.6678 10.4375 36.0938 8.86348 36.0938 6.92186C36.0938 4.98024 37.6678 3.40625 39.6094 3.40625ZM36.2109 10.4821C35.2723 9.58582 34.6875 8.32213 34.6875 6.92186C34.6875 4.20359 36.8911 2 39.6094 2C42.3277 2 44.5313 4.20359 44.5313 6.92186C44.5313 8.31549 43.952 9.57384 43.0212 10.4693C45.8201 10.7683 48 13.1374 48 16.0156V29.8906C48 30.2789 47.6852 30.5937 47.2969 30.5937C46.9086 30.5937 46.5938 30.2789 46.5938 29.8906V16.0156C46.5938 13.7115 44.7259 11.8437 42.4219 11.8437H39.6094H36.9182C34.8009 11.8437 33.0193 13.4297 32.7743 15.5328L31.5771 25.8091C31.2211 28.865 28.5842 31.1562 25.5231 31.1562C24.7602 31.1562 24.0243 31.014 23.3438 30.7536V44.9374C23.3438 45.3516 23.6796 45.6874 24.0938 45.6874C24.508 45.6874 24.8438 45.3516 24.8438 44.9374V39.5468C24.8438 39.1585 25.1586 38.8437 25.5469 38.8437C25.9353 38.8437 26.2501 39.1585 26.2501 39.5468V39.9988C26.515 40.0996 26.7032 40.3559 26.7032 40.6562V46.0468C26.7032 46.461 27.039 46.7968 27.4532 46.7968C27.8674 46.7968 28.2032 46.461 28.2032 46.0468V31C28.2032 30.6117 28.518 30.2969 28.9063 30.2969C29.2946 30.2969 29.6094 30.6117 29.6094 31V46.0468C29.6094 47.2377 28.6441 48.2031 27.4532 48.2031C26.4766 48.2031 25.6516 47.5538 25.3864 46.6634C25.0262 46.9336 24.5787 47.0936 24.0938 47.0936C22.903 47.0936 21.9376 46.1283 21.9376 44.9374V29.9925C20.5609 28.9964 19.6082 27.4401 19.4502 25.6374L18.7378 17.5121C18.5659 15.5512 16.9239 14.0468 14.9555 14.0468H10.0673C8.05162 14.0468 6.3242 15.488 5.96298 17.4711L4.39498 26.0791C4.32539 26.4611 3.95927 26.7144 3.57724 26.6448C3.1952 26.5752 2.94191 26.2091 3.0115 25.8271L4.5795 17.2191C5.01559 14.825 6.94083 13.0217 9.29441 12.694C8.36467 11.8454 7.78135 10.6236 7.78135 9.26561C7.78135 6.70267 9.85903 4.62499 12.422 4.62499C14.9849 4.62499 17.0626 6.70267 17.0626 9.26561C17.0626 10.6143 16.4873 11.8286 15.5686 12.6765C17.9868 12.9611 19.9212 14.9086 20.1387 17.3893L20.8511 25.5146C21.0605 27.9032 23.1091 29.7499 25.5231 29.7499C27.8861 29.7499 29.9086 27.978 30.1803 25.6463L31.3775 15.3701C31.6774 12.7958 33.6992 10.8009 36.2109 10.4821ZM12.422 6.03124C14.2083 6.03124 15.6563 7.47932 15.6563 9.26561C15.6563 11.0519 14.2083 12.5 12.422 12.5C10.6357 12.5 9.1876 11.0519 9.1876 9.26561C9.1876 7.47932 10.6357 6.03124 12.422 6.03124ZM27.9376 24.4531C27.9376 23.1328 26.8672 22.0624 25.5469 22.0624C24.2266 22.0624 23.1563 23.1328 23.1563 24.4531C23.1563 25.7734 24.2266 26.8437 25.5469 26.8437C26.8672 26.8437 27.9376 25.7734 27.9376 24.4531ZM25.5469 20.6562C27.6439 20.6562 29.3438 22.3561 29.3438 24.4531C29.3438 26.55 27.6439 28.2499 25.5469 28.2499C23.45 28.2499 21.7501 26.55 21.7501 24.4531C21.7501 22.3561 23.45 20.6562 25.5469 20.6562ZM43.8281 16.7656C43.4398 16.7656 43.125 17.0804 43.125 17.4687V43.9999C43.125 44.7765 42.4954 45.4061 41.7188 45.4061C40.9421 45.4061 40.3125 44.7765 40.3125 43.9999V30.5468C40.3125 30.1585 39.9977 29.8437 39.6094 29.8437C39.5936 29.8437 39.578 29.8442 39.5625 29.8452C39.547 29.8442 39.5314 29.8437 39.5156 29.8437C39.1273 29.8437 38.8125 30.1585 38.8125 30.5468V43.9999C38.8125 44.7765 38.1829 45.4061 37.4063 45.4061C36.6296 45.4061 36 44.7765 36 43.9999V17.4687C36 17.0804 35.6852 16.7656 35.2969 16.7656C34.9086 16.7656 34.5938 17.0804 34.5938 17.4687V43.9999C34.5938 45.5532 35.853 46.8124 37.4063 46.8124C38.2721 46.8124 39.0466 46.4211 39.5625 45.8057C40.0784 46.4211 40.8529 46.8124 41.7188 46.8124C43.2721 46.8124 44.5313 45.5532 44.5313 43.9999V17.4687C44.5313 17.0804 44.2165 16.7656 43.8281 16.7656ZM18.9506 35.0937H16.8937C16.8152 35.0634 16.7299 35.0468 16.6407 35.0468C16.5515 35.0468 16.4662 35.0634 16.3878 35.0937H12.6749C12.5964 35.0634 12.5111 35.0468 12.422 35.0468C12.3328 35.0468 12.2475 35.0634 12.169 35.0937H8.11182H8.10948H8.10713H5.89332L9.45193 19.1689C9.53661 18.7899 9.29806 18.4141 8.91908 18.3294C8.54009 18.2447 8.16421 18.4833 8.07953 18.8622L4.40609 35.3009C4.26865 35.9159 4.73654 36.4999 5.36677 36.4999H7.40635V43.9999C7.40635 45.5532 8.66555 46.8124 10.2188 46.8124C11.0847 46.8124 11.8592 46.4211 12.3751 45.8057C12.891 46.4211 13.6655 46.8124 14.5313 46.8124C16.0846 46.8124 17.3438 45.5532 17.3438 43.9999V36.4999H19.4772C20.1074 36.4999 20.5753 35.9159 20.4378 35.3009L16.7644 18.8622C16.6797 18.4833 16.3038 18.2447 15.9249 18.3294C15.5459 18.4141 15.3073 18.7899 15.392 19.1689L18.9506 35.0937ZM15.9376 36.4999H13.1251V43.9999C13.1251 44.7765 13.7547 45.4061 14.5313 45.4061C15.308 45.4061 15.9376 44.7765 15.9376 43.9999V36.4999ZM11.6251 43.9999V36.4999H8.8126V43.9999C8.8126 44.7765 9.4422 45.4061 10.2188 45.4061C10.9955 45.4061 11.6251 44.7765 11.6251 43.9999Z" fill="#6B6E73"/>
</svg>
