<svg width="64" height="64" viewBox="0 0 64 64" fill="none" xmlns="http://www.w3.org/2000/svg">
<path fill-rule="evenodd" clip-rule="evenodd" d="M27.5275 7.22093C27.5275 5.07351 29.2683 3.33268 31.4157 3.33268C33.5631 3.33268 35.304 5.07351 35.304 7.22093C35.304 9.36835 33.5631 11.1092 31.4157 11.1092C29.2683 11.1092 27.5275 9.36835 27.5275 7.22093ZM31.4157 1.66602C28.3478 1.66602 25.8608 4.15304 25.8608 7.22093C25.8608 10.2888 28.3478 12.7758 31.4157 12.7758C34.4836 12.7758 36.9706 10.2888 36.9706 7.22093C36.9706 4.15304 34.4836 1.66602 31.4157 1.66602ZM32.3953 26.7524C32.0821 27.2293 31.8999 27.8 31.8999 28.4132V47.629C31.8999 48.0892 32.273 48.4623 32.7332 48.4623C33.1934 48.4623 33.5665 48.0892 33.5665 47.629V28.4132C33.5665 27.6606 34.1767 27.0505 34.9293 27.0505C35.6819 27.0505 36.292 27.6606 36.292 28.4132V29.5662C36.292 30.0264 36.6651 30.3995 37.1254 30.3995C37.5856 30.3995 37.9587 30.0264 37.9587 29.5662V28.4132C37.9587 27.4426 37.5022 26.5786 36.7922 26.0241C37.0667 25.7081 37.185 25.3009 37.1543 24.8996C37.1109 24.3327 36.7831 23.8062 36.2995 23.4802C34.7651 22.4455 33.0164 20.5872 31.4749 18.5679C29.9369 16.5532 28.6707 14.4646 28.0682 13.0245L28.0527 12.9874L28.0337 12.9519C27.4201 11.809 26.2093 10.884 24.8513 10.4837C23.4698 10.0765 21.8483 10.1893 20.4733 11.2616L20.4599 11.2721L20.447 11.283C16.6993 14.4585 13.2737 20.3232 12.1748 25.5908C11.6252 28.2255 11.6321 30.8312 12.594 32.9064C13.4754 34.808 15.1104 36.16 17.5677 36.689L18.1888 46.0952C18.2727 47.3654 19.3275 48.3528 20.6004 48.3528C21.8733 48.3528 22.9281 47.3654 23.012 46.0952L23.6222 36.854H24.3347H25.239L25.1653 35.9528C25.0118 34.0742 24.8874 31.141 25.0121 28.461C25.0745 27.1194 25.1983 25.8653 25.4042 24.8481C25.6048 23.8576 25.8582 23.2288 26.1012 22.923C28.268 25.2329 30.5961 26.3598 32.3953 26.7524ZM21.9519 36.854H19.2489L19.8519 45.9854C19.8779 46.3797 20.2053 46.6861 20.6004 46.6861C20.9955 46.6861 21.3229 46.3797 21.3489 45.9854L21.9519 36.854ZM22.2459 16.7364C23.0518 18.7046 24.0025 20.3243 25.0188 21.6469C24.9884 21.6716 24.9593 21.6986 24.9319 21.7281C24.3339 22.3721 23.9915 23.4271 23.7707 24.5174C23.541 25.6519 23.4115 27.0002 23.3472 28.3835C23.237 30.7524 23.3149 33.2949 23.4383 35.1874H18.6757C16.2114 34.8792 14.8206 33.747 14.1061 32.2055C13.3574 30.5903 13.2922 28.3955 13.8063 25.9312C14.8335 21.0071 18.0714 15.4876 21.511 12.566C22.3842 11.8919 23.4195 11.7992 24.3801 12.0824C25.3538 12.3694 26.1644 13.02 26.5478 13.7083C27.2304 15.3231 28.5768 17.5181 30.1501 19.5792C31.7333 21.6531 33.6118 23.678 35.3677 24.862C35.4066 24.8882 35.4365 24.9192 35.4575 24.9493C35.0034 25.1327 34.4137 25.2759 33.6974 25.2507C31.5963 25.1768 26.7357 23.3028 23.7883 16.1048C23.6139 15.6789 23.1272 15.475 22.7013 15.6494C22.2754 15.8238 22.0715 16.3105 22.2459 16.7364Z" fill="#6B6E73"/>
</svg>
