<svg width="32" height="32" viewBox="0 0 32 32" fill="none" xmlns="http://www.w3.org/2000/svg">
<path d="M15.75 21.5C19.093 21.5 21.8684 19.0698 22.4059 15.8796L25.3344 12.9511C25.4431 13.5342 25.5 14.1354 25.5 14.75C25.5 17.5043 24.3579 19.9919 22.5215 21.765L24.9583 24.5027C25.5091 25.1215 25.454 26.0697 24.8352 26.6205C24.2164 27.1713 23.2683 27.1162 22.7175 26.4974L20.0515 23.5023C18.7541 24.1411 17.2939 24.5 15.75 24.5C10.3652 24.5 6 20.1348 6 14.75C6 9.36522 10.3652 5 15.75 5C18.6242 5 21.2079 6.24364 22.9923 8.22215L20.8669 10.3476C19.629 8.91012 17.7958 8 15.75 8C12.0221 8 9 11.0221 9 14.75C9 18.4779 12.0221 21.5 15.75 21.5Z" fill="#0F7AED"/>
<path d="M12.3274 18.0438C11.5842 17.2718 11.0998 16.249 11.0137 15.1149L15.7499 10.3787L18.9999 13.6287L24.1892 8.43934C24.775 7.85355 25.7247 7.85355 26.3105 8.43934C26.8963 9.02513 26.8963 9.97487 26.3105 10.5607L18.9999 17.8713L15.7499 14.6213L12.3274 18.0438Z" fill="#38D200"/>
</svg>
