<!-- Generated by IcoMoon.io -->
<svg version="1.1" xmlns="http://www.w3.org/2000/svg" width="64" height="64" viewBox="0 0 64 64">
<path fill="#38d200" d="M42.338 29.222c0-2.175-1.763-3.938-3.938-3.938h-28.554c-2.175 0-3.938 1.763-3.938 3.938v15.754c0 2.175 1.763 3.938 3.938 3.938h28.554c2.175 0 3.938-1.763 3.938-3.938v-15.754zM23.631 41.503c-1.045 0.935-2.425 1.504-3.938 1.504-3.263 0-5.908-2.645-5.908-5.908s2.645-5.908 5.908-5.908c1.513 0 2.893 0.569 3.938 1.504 1.045-0.935 2.425-1.504 3.938-1.504 3.263 0 5.908 2.645 5.908 5.908s-2.645 5.908-5.908 5.908c-1.513 0-2.893-0.569-3.938-1.504z"></path>
<path fill="#0f7aed" d="M54.545 20.249c2.016 0.751 3.056 2.982 2.336 5.010l-5.72 16.090c-0.712 2.004-2.877 3.068-4.883 2.441v-16.537c0-3.263-2.645-5.908-5.908-5.908h-20.156l3.021-8.497c0.736-2.072 3.026-3.139 5.086-2.371l26.223 9.772z"></path>
</svg>
