<svg width="115" height="217" viewBox="0 0 115 217" fill="none" xmlns="http://www.w3.org/2000/svg">
<g clip-path="url(#clip0_100_1074)">
<mask id="mask0_100_1074" style="mask-type:luminance" maskUnits="userSpaceOnUse" x="0" y="0" width="115" height="216">
<path d="M115 0.580078H0.0720215V215.764H115V0.580078Z" fill="white"/>
</mask>
<g mask="url(#mask0_100_1074)">
<path fill-rule="evenodd" clip-rule="evenodd" d="M121.371 218.32L19.8836 152.727C19.8836 152.727 7.15447 145.465 4.2402 131.93C0.148263 112.928 13.6417 96.6378 13.6417 96.6378L145.356 181.795C155.516 188.371 158.291 201.819 151.759 211.964C145.05 222.384 131.262 224.684 121.371 218.32Z" fill="#F6F6F6"/>
<path fill-rule="evenodd" clip-rule="evenodd" d="M25.2417 82.5807C25.2417 82.5807 9.69556 73.2613 9.69556 51.7082C9.69556 30.2265 25.2355 21.026 25.2355 21.026L80.7174 -15.0257C90.8867 -21.588 104.488 -18.7236 111.098 -8.62866C117.708 1.46611 114.823 14.9692 104.654 21.5314L57.8929 51.7615L137.568 103.275C137.568 103.275 151.909 111.434 154.736 125.203C158.68 144.414 145.36 160.241 145.36 160.241L25.2417 82.5807Z" fill="#F6F6F6"/>
<path fill-rule="evenodd" clip-rule="evenodd" d="M129.674 30.2795C124.464 30.2806 120.757 31.9109 117.14 34.2481L90.0535 51.7615L117.14 69.2741C120.792 71.6086 124.624 73.2427 129.674 73.2427C141.624 73.2427 151.312 63.6253 151.312 51.7613C151.312 39.8972 141.624 30.2771 129.674 30.2795Z" fill="#F6F6F6"/>
<path fill-rule="evenodd" clip-rule="evenodd" d="M24.9542 221.796C30.1644 221.795 33.8718 220.165 37.4882 217.828L64.5747 200.314L37.4882 182.801C33.8366 180.468 30.0047 178.833 24.9542 178.833C13.0035 178.833 3.31567 188.451 3.31567 200.315C3.31567 212.179 13.0035 221.799 24.9542 221.796Z" fill="#F6F6F6"/>
</g>
</g>
<defs>
<clipPath id="clip0_100_1074">
<rect width="114.928" height="215.49" fill="white" transform="translate(0.0720215 0.580078)"/>
</clipPath>
</defs>
</svg>
