<svg width="39" height="38" viewBox="0 0 39 38" fill="none" xmlns="http://www.w3.org/2000/svg">
<path d="M13.0997 9.60916C13.3574 8.7692 14.1331 8.1958 15.0117 8.1958H22.1135C22.9921 8.1958 23.7678 8.7692 24.0255 9.60916L26.4657 17.5625H10.6594L13.0997 9.60916Z" fill="#38D200"/>
<path d="M7.83086 21.3177C8.08857 20.4777 8.86428 19.9043 9.74288 19.9043H16.8447C17.7233 19.9043 18.499 20.4777 18.7567 21.3177L21.1969 29.271H8.09628C6.75134 29.271 5.78975 27.9701 6.18425 26.6844L7.83086 21.3177Z" fill="#0F7AED"/>
<path fill-rule="evenodd" clip-rule="evenodd" d="M23.4684 29.2709H31.025C32.3706 29.2709 33.3323 27.9689 32.9365 26.6828L31.2604 21.2353C31.0022 20.3961 30.2269 19.8235 29.3488 19.8235H20.7878L23.4477 28.1134C23.5748 28.5094 23.5722 28.9083 23.4684 29.2709Z" fill="#0F7AED"/>
</svg>
