<svg width="39" height="38" viewBox="0 0 39 38" fill="none" xmlns="http://www.w3.org/2000/svg">
<path fill-rule="evenodd" clip-rule="evenodd" d="M11.2448 11.1229C9.95148 11.1229 8.90308 12.1713 8.90308 13.4646V26.9292C8.90308 28.2225 9.95148 29.2709 11.2448 29.2709H25.2948C27.8813 29.2709 29.9781 27.1741 29.9781 24.5876V13.4646C29.9781 12.1713 28.9297 11.1229 27.6365 11.1229H11.2448ZM25.2948 21.7614C26.2648 21.7614 27.0511 20.9209 27.0511 19.884C27.0511 18.8472 26.2648 18.0066 25.2948 18.0066C24.3248 18.0066 23.5385 18.8472 23.5385 19.884C23.5385 20.9209 24.3248 21.7614 25.2948 21.7614Z" fill="#0F7AED"/>
<path d="M21.7824 8.78122C21.7824 7.38386 21.2273 6.04372 20.2392 5.05564C19.2511 4.06755 17.911 3.51245 16.5136 3.51245C15.1163 3.51245 13.7761 4.06755 12.7881 5.05564C11.8 6.04372 11.2449 7.38385 11.2449 8.78122L16.5136 8.78122H21.7824Z" fill="#38D200"/>
</svg>
