<svg width="38" height="38" viewBox="0 0 38 38" fill="none" xmlns="http://www.w3.org/2000/svg">
<circle cx="10.8302" cy="28.1404" r="2.63438" fill="#38D200"/>
<path d="M6.26223 11.3249C6.03255 11.5702 5.90808 11.9129 5.95558 12.277L6.61208 17.3102H30.4838L31.7592 12.4211C31.9527 11.6793 31.3929 10.9547 30.6262 10.9547H14.243L14.3786 11.3613C14.9409 13.0483 14.0292 14.8718 12.3422 15.4341C10.6552 15.9964 8.83173 15.0847 8.2694 13.3977L7.57849 11.3249H6.26223Z" fill="#0F7AED"/>
<path d="M6.91752 19.6518H29.8729L28.0957 26.4645C27.9612 26.98 27.4956 27.3398 26.9627 27.3398H26.5812C26.2421 25.3182 24.4839 23.7778 22.366 23.7778C20.248 23.7778 18.4899 25.3182 18.1507 27.3398H15.1829C14.8437 25.3182 13.0856 23.7778 10.9676 23.7778C9.63451 23.7778 8.44393 24.3881 7.66005 25.3446L6.91752 19.6518Z" fill="#0F7AED"/>
<path fill-rule="evenodd" clip-rule="evenodd" d="M3.51245 7.94351C3.51245 6.97356 4.29875 6.18726 5.26871 6.18726H9.74544C10.4998 6.18726 11.1698 6.66893 11.4102 7.38394L12.7876 11.4819C13.0967 12.4013 12.6019 13.3971 11.6825 13.7062C10.7631 14.0152 9.76721 13.5204 9.45817 12.601L8.48296 9.69977H5.26871C4.29875 9.69977 3.51245 8.91347 3.51245 7.94351Z" fill="#38D200"/>
<circle cx="22.5387" cy="28.1404" r="2.63438" fill="#38D200"/>
</svg>
