<svg width="39" height="38" viewBox="0 0 39 38" fill="none" xmlns="http://www.w3.org/2000/svg">
<path d="M32.3199 18.7334C32.3199 15.3176 30.963 12.0417 28.5477 9.62642C26.1324 7.2111 22.8565 5.85419 19.4407 5.85419C16.025 5.85419 12.7491 7.2111 10.3338 9.62642C7.91844 12.0417 6.56152 15.3176 6.56152 18.7334C6.56152 18.7334 11.5376 17.2699 19.4407 17.2699C27.3439 17.2699 32.3199 18.7334 32.3199 18.7334Z" fill="#38D200"/>
<path d="M17.0991 31.6126C17.7141 31.6126 18.3232 31.4915 18.8914 31.2561C19.4596 31.0208 19.9759 30.6758 20.4107 30.2409C20.8456 29.806 21.1906 29.2897 21.426 28.7215C21.6613 28.1533 21.7825 27.5443 21.7825 26.9293H17.0991L17.0991 31.6126Z" fill="#0F7AED"/>
<path d="M21.7825 21.6605C21.7825 22.9538 20.7341 24.0022 19.4408 24.0022C18.1475 24.0022 17.0991 22.9538 17.0991 21.6605C17.0991 20.3673 18.1475 19.3188 19.4408 19.3188C20.7341 19.3188 21.7825 20.3673 21.7825 21.6605Z" fill="#0F7AED"/>
<path d="M17.0991 21.6605H21.7825V26.9293H17.0991L17.0991 21.6605Z" fill="#0F7AED"/>
</svg>
