<svg width="39" height="38" viewBox="0 0 39 38" fill="none" xmlns="http://www.w3.org/2000/svg">
<path fill-rule="evenodd" clip-rule="evenodd" d="M14.1719 6.43958H30.5636V28.8732C30.5636 30.3759 28.9593 31.3341 27.6362 30.6217C27.0838 30.3243 26.4234 30.3054 25.8549 30.5707L23.2435 31.7893C22.6903 32.0475 22.0494 32.0388 21.5033 31.7658L19.1642 30.5962C18.6012 30.3147 17.9384 30.3147 17.3754 30.5962L17.0663 30.7508C15.7365 31.4157 14.1719 30.4487 14.1719 28.9619V6.43958ZM16.5135 12.2938H28.2219V14.6354H16.5135V12.2938ZM28.2219 18.7334H16.5135V21.075H28.2219V18.7334Z" fill="#38D200"/>
<path d="M7.14697 11.1229H11.8303V22.2459C11.8303 23.5392 10.7819 24.5876 9.48865 24.5876V24.5876C8.19538 24.5876 7.14697 23.5392 7.14697 22.2459V11.1229Z" fill="#0F7AED"/>
<path d="M7.14697 11.1229C7.14697 10.5079 7.26811 9.89889 7.50347 9.33068C7.73883 8.76247 8.08381 8.24619 8.51869 7.8113C8.95358 7.37641 9.46987 7.03143 10.0381 6.79607C10.6063 6.56071 11.2153 6.43958 11.8303 6.43958L11.8303 11.1229L7.14697 11.1229Z" fill="#0F7AED"/>
</svg>
