<svg width="80" height="80" viewBox="0 0 80 80" fill="none" xmlns="http://www.w3.org/2000/svg">
<g clip-path="url(#clip0_19_3655)">
<path d="M29.8789 56.0666L29.8789 23.7708L72.5143 20.8316L72.5143 59.6881L29.8789 56.0666Z" fill="#D3D3D3"/>
<path d="M52.8588 34.4341L53.8035 36.9971C54.757 39.5514 54.5908 42.3944 53.3574 44.8262L52.5789 46.2695L57.5999 48.885L59.4107 45.7447C60.2417 44.2138 80.2998 41.782 80.2648 40.0413C80.2385 38.493 60.0405 36.7959 59.3232 35.4226L57.5737 31.1538L52.8588 34.4254L52.8588 34.4341Z" fill="#D3D3D3"/>
<path d="M57.425 31.1539L57.425 32.0636L59.3145 35.4226C60.1367 36.7698 60.6441 38.2831 60.8015 39.8576L60.8015 39.9101C60.7666 41.9308 60.2942 43.9252 59.4019 45.7447L57.4687 48.2815L57.4687 49.2787C59.0083 56.854 65.6652 62.295 73.3892 62.3125L80.1598 62.3125L80.1598 17.8926L73.3805 17.8926C65.5602 17.9101 58.8596 23.4823 57.4163 31.1626L57.425 31.1539Z" fill="#D3D3D3"/>
<path d="M32.0923 56.3553C33.2732 58.8833 36.2823 59.9768 38.8104 58.7959C40.6998 57.9124 41.8545 55.9617 41.7146 53.8798L32.3197 56.1191" fill="#D3D3D3"/>
<path d="M32.3545 23.456C32.8356 21.6015 35.3549 20.648 37.9966 21.3391C40.6384 22.0302 42.3792 24.7419 41.898 26.6051L32.3545 23.4647L32.3545 23.456Z" fill="#D3D3D3"/>
<path d="M22.7585 23.7184C19.6356 24.5931 16.8539 26.3951 14.7633 28.8794C12.4627 31.7573 11.238 35.3526 11.308 39.044C10.3895 48.0627 15.6293 52.9438 15.6293 52.9438C17.9474 56.2416 21.4376 54.1422 21.4376 54.1422C22.0062 54.7983 22.5573 55.4631 23.1346 56.1192C23.3183 56.1979 23.5895 56.3029 23.9307 56.4253C26.2225 57.1776 28.6631 57.3526 31.0337 56.9502L31.0337 56.9764C31.4098 56.9152 31.7772 56.8452 32.1358 56.7752C32.1971 56.7665 32.2671 56.749 32.3283 56.7402C32.9669 56.6265 33.7191 56.4691 34.5589 56.2416C39.0814 55.1482 43.3939 53.3462 47.3478 50.8969C52.885 47.4241 54.1359 44.8174 54.6607 43.2691C55.3955 41.0385 55.3955 38.6329 54.6607 36.411C54.0047 34.4953 52.5701 32.3172 47.6365 29.3605C44.9072 27.7335 42.0205 26.3951 39.0114 25.3804C39.0901 25.3804 39.1689 25.3891 39.2476 25.3979C36.6933 24.2432 33.9728 23.4997 31.1911 23.2023C28.3744 22.7561 25.4877 22.9398 22.7498 23.7359L22.7585 23.7184Z" fill="#D3D3D3"/>
<path d="M33.1506 54.7371C31.506 54.5359 29.8877 54.1335 28.3394 53.5562C27.0973 53.11 25.9513 52.4277 24.9716 51.5442C23.5808 50.1096 22.6798 48.2727 22.3911 46.2957C21.9625 43.7939 22.2511 41.2222 23.2221 38.8778C24.2281 36.0961 25.1028 35.8862 25.7327 33.7518C26.3362 31.3637 26.17 28.8444 25.2515 26.5613C26.9661 26.1589 28.4531 25.8965 29.6341 25.7303C31.4623 25.4679 33.308 25.3104 35.1537 25.2579C36.807 25.223 38.2066 25.2929 39.2651 25.3717C36.7108 24.217 33.9903 23.4734 31.2086 23.176C28.3919 22.7299 25.5052 22.9136 22.7672 23.7184C19.6444 24.5931 16.8627 26.3951 14.772 28.8794C12.4714 31.7573 11.2468 35.3526 11.308 39.044C10.3895 48.0627 15.6293 52.9438 15.6293 52.9438C17.9474 56.2416 21.4376 54.1422 21.4376 54.1422C22.0062 54.7983 22.5573 55.4631 23.1346 56.1192C23.3183 56.1979 23.5895 56.3029 23.9307 56.4253C26.6511 57.2738 29.5466 57.3788 32.3283 56.749C34.0078 56.5303 35.6436 56.1104 37.2269 55.5069C35.5386 55.3232 34.174 54.9208 33.1506 54.7458L33.1506 54.7371Z" fill="#D3D3D3"/>
<path d="M67.5282 68.7593L68.8929 71.1998L70.2575 68.7593L72.7418 67.4209L70.2575 66.0825L68.8929 63.642L67.5282 66.0825L65.0439 67.4209L67.537 68.7593L67.5282 68.7593Z" fill="#D3D3D3"/>
<path d="M48.3625 18.6623L49.7271 21.1029L51.0917 18.6623L53.576 17.324L51.0917 15.9856L49.7271 13.545L48.3625 15.9856L45.8782 17.324L48.3712 18.6623L48.3625 18.6623Z" fill="#D3D3D3"/>
<path d="M66.4523 12.6878L67.2746 14.1661L68.0969 12.6878L69.6014 11.883L68.0969 11.0783L67.2746 9.59993L66.4523 11.0783L64.9478 11.883L66.4523 12.6878Z" fill="#D3D3D3"/>
<path d="M26.9925 13.5363L27.911 15.1896L28.8295 13.5363L30.5177 12.6266L28.8295 11.7256L27.911 10.0723L26.9925 11.7256L25.3042 12.6266L26.9925 13.5363Z" fill="#D3D3D3"/>
<path d="M49.9808 60.8691L50.7856 62.3037L51.5904 60.8691L53.0599 60.0818L51.5904 59.2946L50.7856 57.86L49.9808 59.2946L48.5112 60.0818L49.9808 60.8691Z" fill="#D3D3D3"/>
<path d="M20.0905 66.5463L21.4551 68.9868L22.8197 66.5463L25.3127 65.2079L22.8197 63.8695L21.4551 61.429L20.0905 63.8695L17.5974 65.2079L20.0905 66.5463Z" fill="#D3D3D3"/>
</g>
<defs>
<clipPath id="clip0_19_3655">
<rect width="80" height="80" fill="white" transform="translate(0 80) rotate(-90)"/>
</clipPath>
</defs>
</svg>
