<svg width="24" height="24" viewBox="0 0 24 24" fill="none" xmlns="http://www.w3.org/2000/svg">
<path d="M2.25 20.25H15.75" stroke="#2772C7" stroke-width="1.8" stroke-linecap="round" stroke-linejoin="round"/>
<path d="M1.58696 13.1596L5.1209 16.4727C5.59175 16.9141 6.19239 17.1919 6.83366 17.2649C7.47493 17.3378 8.12263 17.202 8.68059 16.8776L22.875 8.62502L21.1276 6.48927C20.6743 5.9352 20.0377 5.5615 19.333 5.43568C18.6282 5.30986 17.9017 5.44021 17.2847 5.80318L13.125 8.25002L7.50004 6.37502L5.95326 7.03793C5.83754 7.08753 5.73616 7.16545 5.65848 7.26453C5.5808 7.36361 5.52931 7.48065 5.50876 7.60487C5.48821 7.72908 5.49926 7.85647 5.54089 7.97529C5.58252 8.09411 5.65339 8.20053 5.74697 8.28476L8.62504 10.875L6.00004 12.375L3.37504 11.25L1.80447 11.9231C1.68994 11.9722 1.58944 12.0491 1.51206 12.1467C1.43467 12.2444 1.38285 12.3598 1.36126 12.4825C1.33967 12.6053 1.349 12.7314 1.3884 12.8497C1.42781 12.9679 1.49605 13.0744 1.58696 13.1596V13.1596Z" stroke="#2772C7" stroke-width="1.8" stroke-linecap="round" stroke-linejoin="round"/>
</svg>
